<mxfile host="app.diagrams.net" modified="2023-06-01T08:56:07.170Z" agent="Mozilla/5.0 (Macintosh; Intel Mac OS X 10_15_7) AppleWebKit/605.1.15 (KHTML, like Gecko) Version/16.5 Safari/605.1.15" etag="OE08xTezNe_EqvKZ9CEY" version="21.3.6" type="device">
  <diagram id="C5RBs43oDa-KdzZeNtuy" name="Page-1">
    <mxGraphModel dx="2049" dy="1140" grid="1" gridSize="10" guides="1" tooltips="1" connect="1" arrows="1" fold="1" page="1" pageScale="1" pageWidth="827" pageHeight="1169" math="0" shadow="0">
      <root>
        <mxCell id="WIyWlLk6GJQsqaUBKTNV-0" />
        <mxCell id="WIyWlLk6GJQsqaUBKTNV-1" parent="WIyWlLk6GJQsqaUBKTNV-0" />
        <mxCell id="j4ACCZ0t5rgmlNFLIeth-21" value="" style="rounded=0;whiteSpace=wrap;html=1;container=0;" parent="WIyWlLk6GJQsqaUBKTNV-1" vertex="1">
          <mxGeometry x="1590" y="490" width="400" height="460" as="geometry" />
        </mxCell>
        <mxCell id="j4ACCZ0t5rgmlNFLIeth-19" value="" style="rounded=0;whiteSpace=wrap;html=1;" parent="WIyWlLk6GJQsqaUBKTNV-1" vertex="1">
          <mxGeometry x="640" y="200" width="830" height="420" as="geometry" />
        </mxCell>
        <mxCell id="j4ACCZ0t5rgmlNFLIeth-17" value="" style="rounded=0;whiteSpace=wrap;html=1;movable=1;resizable=1;rotatable=1;deletable=1;editable=1;locked=0;connectable=1;" parent="WIyWlLk6GJQsqaUBKTNV-1" vertex="1">
          <mxGeometry x="10" y="200" width="520" height="420" as="geometry" />
        </mxCell>
        <mxCell id="jizPv-eEhtP9rnBbFYtr-7" value="" style="edgeStyle=orthogonalEdgeStyle;rounded=0;orthogonalLoop=1;jettySize=auto;html=1;" edge="1" parent="WIyWlLk6GJQsqaUBKTNV-1" source="j4ACCZ0t5rgmlNFLIeth-0" target="jizPv-eEhtP9rnBbFYtr-6">
          <mxGeometry relative="1" as="geometry" />
        </mxCell>
        <mxCell id="jizPv-eEhtP9rnBbFYtr-9" value="" style="edgeStyle=orthogonalEdgeStyle;rounded=0;orthogonalLoop=1;jettySize=auto;html=1;" edge="1" parent="WIyWlLk6GJQsqaUBKTNV-1" source="j4ACCZ0t5rgmlNFLIeth-0" target="jizPv-eEhtP9rnBbFYtr-6">
          <mxGeometry relative="1" as="geometry" />
        </mxCell>
        <mxCell id="jizPv-eEhtP9rnBbFYtr-11" value="" style="edgeStyle=orthogonalEdgeStyle;rounded=0;orthogonalLoop=1;jettySize=auto;html=1;" edge="1" parent="WIyWlLk6GJQsqaUBKTNV-1" source="j4ACCZ0t5rgmlNFLIeth-0" target="jizPv-eEhtP9rnBbFYtr-10">
          <mxGeometry relative="1" as="geometry" />
        </mxCell>
        <mxCell id="j4ACCZ0t5rgmlNFLIeth-0" value="&lt;font style=&quot;font-size: 20px;&quot;&gt;Developer commit &amp;nbsp;new code&lt;/font&gt;" style="rounded=1;whiteSpace=wrap;html=1;movable=1;resizable=1;rotatable=1;deletable=1;editable=1;locked=0;connectable=1;" parent="WIyWlLk6GJQsqaUBKTNV-1" vertex="1">
          <mxGeometry x="20" y="340" width="120" height="160" as="geometry" />
        </mxCell>
        <mxCell id="j4ACCZ0t5rgmlNFLIeth-4" value="" style="edgeStyle=orthogonalEdgeStyle;rounded=0;orthogonalLoop=1;jettySize=auto;html=1;movable=1;resizable=1;rotatable=1;deletable=1;editable=1;locked=0;connectable=1;entryX=0;entryY=0.5;entryDx=0;entryDy=0;" parent="WIyWlLk6GJQsqaUBKTNV-1" source="j4ACCZ0t5rgmlNFLIeth-1" target="j4ACCZ0t5rgmlNFLIeth-3" edge="1">
          <mxGeometry relative="1" as="geometry" />
        </mxCell>
        <mxCell id="j4ACCZ0t5rgmlNFLIeth-1" value="&lt;font style=&quot;font-size: 20px;&quot;&gt;GitHub&amp;nbsp;&lt;/font&gt;" style="whiteSpace=wrap;html=1;rounded=1;movable=1;resizable=1;rotatable=1;deletable=1;editable=1;locked=0;connectable=1;" parent="WIyWlLk6GJQsqaUBKTNV-1" vertex="1">
          <mxGeometry x="380" y="390" width="120" height="60" as="geometry" />
        </mxCell>
        <mxCell id="j4ACCZ0t5rgmlNFLIeth-6" value="" style="edgeStyle=orthogonalEdgeStyle;rounded=0;orthogonalLoop=1;jettySize=auto;html=1;" parent="WIyWlLk6GJQsqaUBKTNV-1" source="j4ACCZ0t5rgmlNFLIeth-3" target="j4ACCZ0t5rgmlNFLIeth-5" edge="1">
          <mxGeometry relative="1" as="geometry" />
        </mxCell>
        <mxCell id="j4ACCZ0t5rgmlNFLIeth-3" value="Jenkins Server use SCM hook trigger the pull request" style="whiteSpace=wrap;html=1;rounded=1;movable=1;resizable=1;rotatable=1;deletable=1;editable=1;locked=0;connectable=1;" parent="WIyWlLk6GJQsqaUBKTNV-1" vertex="1">
          <mxGeometry x="680" y="310" width="120" height="60" as="geometry" />
        </mxCell>
        <mxCell id="jizPv-eEhtP9rnBbFYtr-17" value="" style="edgeStyle=orthogonalEdgeStyle;rounded=0;orthogonalLoop=1;jettySize=auto;html=1;" edge="1" parent="WIyWlLk6GJQsqaUBKTNV-1" source="j4ACCZ0t5rgmlNFLIeth-5" target="jizPv-eEhtP9rnBbFYtr-16">
          <mxGeometry relative="1" as="geometry" />
        </mxCell>
        <mxCell id="jizPv-eEhtP9rnBbFYtr-19" value="" style="edgeStyle=orthogonalEdgeStyle;rounded=0;orthogonalLoop=1;jettySize=auto;html=1;" edge="1" parent="WIyWlLk6GJQsqaUBKTNV-1" source="j4ACCZ0t5rgmlNFLIeth-5" target="jizPv-eEhtP9rnBbFYtr-16">
          <mxGeometry relative="1" as="geometry" />
        </mxCell>
        <mxCell id="jizPv-eEhtP9rnBbFYtr-21" value="" style="edgeStyle=orthogonalEdgeStyle;rounded=0;orthogonalLoop=1;jettySize=auto;html=1;" edge="1" parent="WIyWlLk6GJQsqaUBKTNV-1" source="j4ACCZ0t5rgmlNFLIeth-5" target="jizPv-eEhtP9rnBbFYtr-20">
          <mxGeometry relative="1" as="geometry" />
        </mxCell>
        <mxCell id="j4ACCZ0t5rgmlNFLIeth-5" value="&lt;font style=&quot;font-size: 18px;&quot;&gt;start unit test&lt;/font&gt;" style="whiteSpace=wrap;html=1;rounded=1;" parent="WIyWlLk6GJQsqaUBKTNV-1" vertex="1">
          <mxGeometry x="680" y="410" width="120" height="60" as="geometry" />
        </mxCell>
        <mxCell id="jizPv-eEhtP9rnBbFYtr-26" value="" style="edgeStyle=orthogonalEdgeStyle;rounded=0;orthogonalLoop=1;jettySize=auto;html=1;" edge="1" parent="WIyWlLk6GJQsqaUBKTNV-1" source="j4ACCZ0t5rgmlNFLIeth-7" target="jizPv-eEhtP9rnBbFYtr-25">
          <mxGeometry relative="1" as="geometry" />
        </mxCell>
        <mxCell id="jizPv-eEhtP9rnBbFYtr-28" value="" style="edgeStyle=orthogonalEdgeStyle;rounded=0;orthogonalLoop=1;jettySize=auto;html=1;" edge="1" parent="WIyWlLk6GJQsqaUBKTNV-1" source="j4ACCZ0t5rgmlNFLIeth-7" target="jizPv-eEhtP9rnBbFYtr-25">
          <mxGeometry relative="1" as="geometry" />
        </mxCell>
        <mxCell id="jizPv-eEhtP9rnBbFYtr-30" value="" style="edgeStyle=orthogonalEdgeStyle;rounded=0;orthogonalLoop=1;jettySize=auto;html=1;" edge="1" parent="WIyWlLk6GJQsqaUBKTNV-1" source="j4ACCZ0t5rgmlNFLIeth-7" target="jizPv-eEhtP9rnBbFYtr-29">
          <mxGeometry relative="1" as="geometry" />
        </mxCell>
        <mxCell id="j4ACCZ0t5rgmlNFLIeth-7" value="&lt;font style=&quot;font-size: 22px;&quot;&gt;start build&lt;/font&gt;" style="whiteSpace=wrap;html=1;rounded=1;" parent="WIyWlLk6GJQsqaUBKTNV-1" vertex="1">
          <mxGeometry x="975" y="410" width="120" height="60" as="geometry" />
        </mxCell>
        <mxCell id="j4ACCZ0t5rgmlNFLIeth-13" value="&lt;font style=&quot;font-size: 16px;&quot;&gt;push to remote develop branch&lt;/font&gt;" style="text;html=1;strokeColor=none;fillColor=none;align=center;verticalAlign=middle;whiteSpace=wrap;rounded=0;movable=1;resizable=1;rotatable=1;deletable=1;editable=1;locked=0;connectable=1;" parent="WIyWlLk6GJQsqaUBKTNV-1" vertex="1">
          <mxGeometry x="227.5" y="405" width="90" height="30" as="geometry" />
        </mxCell>
        <mxCell id="j4ACCZ0t5rgmlNFLIeth-18" value="&lt;font style=&quot;font-size: 24px;&quot;&gt;Continuing Integration&lt;/font&gt;" style="text;html=1;strokeColor=none;fillColor=none;align=center;verticalAlign=middle;whiteSpace=wrap;rounded=0;movable=1;resizable=1;rotatable=1;deletable=1;editable=1;locked=0;connectable=1;fontSize=24;" parent="WIyWlLk6GJQsqaUBKTNV-1" vertex="1">
          <mxGeometry x="110" y="240" width="265" height="30" as="geometry" />
        </mxCell>
        <mxCell id="j4ACCZ0t5rgmlNFLIeth-20" value="Continuing Testing" style="text;html=1;strokeColor=none;fillColor=none;align=center;verticalAlign=middle;whiteSpace=wrap;rounded=0;fontSize=24;" parent="WIyWlLk6GJQsqaUBKTNV-1" vertex="1">
          <mxGeometry x="970" y="240" width="203" height="30" as="geometry" />
        </mxCell>
        <mxCell id="j4ACCZ0t5rgmlNFLIeth-23" value="" style="rounded=0;whiteSpace=wrap;html=1;" parent="WIyWlLk6GJQsqaUBKTNV-1" vertex="1">
          <mxGeometry x="640" y="680" width="830" height="370" as="geometry" />
        </mxCell>
        <mxCell id="j4ACCZ0t5rgmlNFLIeth-24" value="Continuing Deployment" style="text;html=1;strokeColor=none;fillColor=none;align=center;verticalAlign=middle;whiteSpace=wrap;rounded=0;fontSize=24;" parent="WIyWlLk6GJQsqaUBKTNV-1" vertex="1">
          <mxGeometry x="900" y="710" width="280" height="50" as="geometry" />
        </mxCell>
        <mxCell id="j4ACCZ0t5rgmlNFLIeth-25" value="" style="rounded=0;whiteSpace=wrap;html=1;" parent="WIyWlLk6GJQsqaUBKTNV-1" vertex="1">
          <mxGeometry x="60" y="732.5" width="470" height="265" as="geometry" />
        </mxCell>
        <mxCell id="j4ACCZ0t5rgmlNFLIeth-26" value="Continuing Operations" style="text;html=1;strokeColor=none;fillColor=none;align=center;verticalAlign=middle;whiteSpace=wrap;rounded=0;fontSize=24;" parent="WIyWlLk6GJQsqaUBKTNV-1" vertex="1">
          <mxGeometry x="130" y="755" width="285" height="40" as="geometry" />
        </mxCell>
        <mxCell id="jizPv-eEhtP9rnBbFYtr-12" style="edgeStyle=orthogonalEdgeStyle;rounded=0;orthogonalLoop=1;jettySize=auto;html=1;entryX=0;entryY=0.5;entryDx=0;entryDy=0;" edge="1" parent="WIyWlLk6GJQsqaUBKTNV-1" source="jizPv-eEhtP9rnBbFYtr-6" target="j4ACCZ0t5rgmlNFLIeth-1">
          <mxGeometry relative="1" as="geometry" />
        </mxCell>
        <mxCell id="jizPv-eEhtP9rnBbFYtr-6" value="Frontend" style="rhombus;whiteSpace=wrap;html=1;rounded=1;" vertex="1" parent="WIyWlLk6GJQsqaUBKTNV-1">
          <mxGeometry x="210" y="290" width="80" height="80" as="geometry" />
        </mxCell>
        <mxCell id="jizPv-eEhtP9rnBbFYtr-13" style="edgeStyle=orthogonalEdgeStyle;rounded=0;orthogonalLoop=1;jettySize=auto;html=1;entryX=0;entryY=0.5;entryDx=0;entryDy=0;" edge="1" parent="WIyWlLk6GJQsqaUBKTNV-1" source="jizPv-eEhtP9rnBbFYtr-10" target="j4ACCZ0t5rgmlNFLIeth-1">
          <mxGeometry relative="1" as="geometry">
            <mxPoint x="410" y="420" as="targetPoint" />
          </mxGeometry>
        </mxCell>
        <mxCell id="jizPv-eEhtP9rnBbFYtr-10" value="Backend" style="rhombus;whiteSpace=wrap;html=1;rounded=1;" vertex="1" parent="WIyWlLk6GJQsqaUBKTNV-1">
          <mxGeometry x="210" y="480" width="80" height="80" as="geometry" />
        </mxCell>
        <mxCell id="jizPv-eEhtP9rnBbFYtr-14" value="FrontEnd_Dev" style="text;html=1;strokeColor=none;fillColor=none;align=center;verticalAlign=middle;whiteSpace=wrap;rounded=0;" vertex="1" parent="WIyWlLk6GJQsqaUBKTNV-1">
          <mxGeometry x="354" y="340" width="60" height="30" as="geometry" />
        </mxCell>
        <mxCell id="jizPv-eEhtP9rnBbFYtr-15" value="BackEnd_Dev" style="text;html=1;strokeColor=none;fillColor=none;align=center;verticalAlign=middle;whiteSpace=wrap;rounded=0;" vertex="1" parent="WIyWlLk6GJQsqaUBKTNV-1">
          <mxGeometry x="354" y="478.31" width="60" height="30" as="geometry" />
        </mxCell>
        <mxCell id="jizPv-eEhtP9rnBbFYtr-23" style="edgeStyle=orthogonalEdgeStyle;rounded=0;orthogonalLoop=1;jettySize=auto;html=1;entryX=0;entryY=0.5;entryDx=0;entryDy=0;" edge="1" parent="WIyWlLk6GJQsqaUBKTNV-1" source="jizPv-eEhtP9rnBbFYtr-16" target="j4ACCZ0t5rgmlNFLIeth-7">
          <mxGeometry relative="1" as="geometry" />
        </mxCell>
        <mxCell id="jizPv-eEhtP9rnBbFYtr-16" value="Frontend: &lt;br&gt;ng test" style="rhombus;whiteSpace=wrap;html=1;rounded=1;" vertex="1" parent="WIyWlLk6GJQsqaUBKTNV-1">
          <mxGeometry x="840" y="325" width="90" height="90" as="geometry" />
        </mxCell>
        <mxCell id="jizPv-eEhtP9rnBbFYtr-24" style="edgeStyle=orthogonalEdgeStyle;rounded=0;orthogonalLoop=1;jettySize=auto;html=1;entryX=0;entryY=0.5;entryDx=0;entryDy=0;" edge="1" parent="WIyWlLk6GJQsqaUBKTNV-1" source="jizPv-eEhtP9rnBbFYtr-20" target="j4ACCZ0t5rgmlNFLIeth-7">
          <mxGeometry relative="1" as="geometry" />
        </mxCell>
        <mxCell id="jizPv-eEhtP9rnBbFYtr-20" value="Backend:&lt;br&gt;dotnet test" style="rhombus;whiteSpace=wrap;html=1;rounded=1;" vertex="1" parent="WIyWlLk6GJQsqaUBKTNV-1">
          <mxGeometry x="840" y="450" width="90" height="90" as="geometry" />
        </mxCell>
        <mxCell id="jizPv-eEhtP9rnBbFYtr-53" style="edgeStyle=orthogonalEdgeStyle;rounded=0;orthogonalLoop=1;jettySize=auto;html=1;entryX=0;entryY=0.5;entryDx=0;entryDy=0;" edge="1" parent="WIyWlLk6GJQsqaUBKTNV-1" source="jizPv-eEhtP9rnBbFYtr-25" target="jizPv-eEhtP9rnBbFYtr-32">
          <mxGeometry relative="1" as="geometry" />
        </mxCell>
        <mxCell id="jizPv-eEhtP9rnBbFYtr-25" value="Frontend:&lt;br&gt;ng build" style="rhombus;whiteSpace=wrap;html=1;rounded=1;" vertex="1" parent="WIyWlLk6GJQsqaUBKTNV-1">
          <mxGeometry x="1140" y="330" width="80" height="80" as="geometry" />
        </mxCell>
        <mxCell id="jizPv-eEhtP9rnBbFYtr-54" style="edgeStyle=orthogonalEdgeStyle;rounded=0;orthogonalLoop=1;jettySize=auto;html=1;entryX=0;entryY=0.5;entryDx=0;entryDy=0;" edge="1" parent="WIyWlLk6GJQsqaUBKTNV-1" source="jizPv-eEhtP9rnBbFYtr-29" target="jizPv-eEhtP9rnBbFYtr-32">
          <mxGeometry relative="1" as="geometry" />
        </mxCell>
        <mxCell id="jizPv-eEhtP9rnBbFYtr-29" value="Backend:&lt;br&gt;dotnet build" style="rhombus;whiteSpace=wrap;html=1;rounded=1;" vertex="1" parent="WIyWlLk6GJQsqaUBKTNV-1">
          <mxGeometry x="1140" y="440" width="85" height="90" as="geometry" />
        </mxCell>
        <mxCell id="jizPv-eEhtP9rnBbFYtr-67" style="edgeStyle=orthogonalEdgeStyle;rounded=0;orthogonalLoop=1;jettySize=auto;html=1;entryX=0;entryY=0.5;entryDx=0;entryDy=0;" edge="1" parent="WIyWlLk6GJQsqaUBKTNV-1" source="jizPv-eEhtP9rnBbFYtr-32" target="jizPv-eEhtP9rnBbFYtr-56">
          <mxGeometry relative="1" as="geometry">
            <Array as="points">
              <mxPoint x="1350" y="540" />
              <mxPoint x="1620" y="540" />
              <mxPoint x="1620" y="640" />
              <mxPoint x="1810" y="640" />
              <mxPoint x="1810" y="670" />
            </Array>
          </mxGeometry>
        </mxCell>
        <mxCell id="jizPv-eEhtP9rnBbFYtr-68" style="edgeStyle=orthogonalEdgeStyle;rounded=0;orthogonalLoop=1;jettySize=auto;html=1;entryX=0.5;entryY=0;entryDx=0;entryDy=0;" edge="1" parent="WIyWlLk6GJQsqaUBKTNV-1" source="jizPv-eEhtP9rnBbFYtr-32" target="jizPv-eEhtP9rnBbFYtr-51">
          <mxGeometry relative="1" as="geometry">
            <Array as="points">
              <mxPoint x="1350" y="540" />
              <mxPoint x="1620" y="540" />
              <mxPoint x="1620" y="640" />
              <mxPoint x="1700" y="640" />
            </Array>
          </mxGeometry>
        </mxCell>
        <mxCell id="jizPv-eEhtP9rnBbFYtr-32" value="&lt;font style=&quot;font-size: 16px;&quot;&gt;merge &lt;br&gt;FrontEnd_Dev&lt;br&gt;/ BackEnd_Dev to main branch&lt;/font&gt;" style="whiteSpace=wrap;html=1;rounded=1;" vertex="1" parent="WIyWlLk6GJQsqaUBKTNV-1">
          <mxGeometry x="1290" y="350" width="120" height="160" as="geometry" />
        </mxCell>
        <mxCell id="jizPv-eEhtP9rnBbFYtr-73" value="" style="edgeStyle=orthogonalEdgeStyle;rounded=0;orthogonalLoop=1;jettySize=auto;html=1;" edge="1" parent="WIyWlLk6GJQsqaUBKTNV-1" source="j4ACCZ0t5rgmlNFLIeth-9" target="jizPv-eEhtP9rnBbFYtr-72">
          <mxGeometry relative="1" as="geometry" />
        </mxCell>
        <mxCell id="jizPv-eEhtP9rnBbFYtr-76" value="" style="edgeStyle=orthogonalEdgeStyle;rounded=0;orthogonalLoop=1;jettySize=auto;html=1;" edge="1" parent="WIyWlLk6GJQsqaUBKTNV-1" source="j4ACCZ0t5rgmlNFLIeth-9" target="jizPv-eEhtP9rnBbFYtr-75">
          <mxGeometry relative="1" as="geometry">
            <Array as="points">
              <mxPoint x="1220" y="903" />
              <mxPoint x="1220" y="958" />
            </Array>
          </mxGeometry>
        </mxCell>
        <mxCell id="j4ACCZ0t5rgmlNFLIeth-9" value="&lt;font style=&quot;font-size: 22px;&quot;&gt;start Integration test&lt;/font&gt;" style="whiteSpace=wrap;html=1;rounded=1;container=0;" parent="WIyWlLk6GJQsqaUBKTNV-1" vertex="1">
          <mxGeometry x="1280" y="830.0008108108109" width="120" height="146.75675675675677" as="geometry" />
        </mxCell>
        <mxCell id="j4ACCZ0t5rgmlNFLIeth-22" value="Continuing Delivery" style="text;html=1;strokeColor=none;fillColor=none;align=center;verticalAlign=middle;whiteSpace=wrap;rounded=0;fontSize=24;container=0;" parent="WIyWlLk6GJQsqaUBKTNV-1" vertex="1">
          <mxGeometry x="1690" y="508.3086486486486" width="220" height="73.37837837837839" as="geometry" />
        </mxCell>
        <mxCell id="jizPv-eEhtP9rnBbFYtr-69" style="edgeStyle=orthogonalEdgeStyle;rounded=0;orthogonalLoop=1;jettySize=auto;html=1;entryX=0.5;entryY=0;entryDx=0;entryDy=0;" edge="1" parent="WIyWlLk6GJQsqaUBKTNV-1" source="jizPv-eEhtP9rnBbFYtr-56" target="jizPv-eEhtP9rnBbFYtr-59">
          <mxGeometry relative="1" as="geometry" />
        </mxCell>
        <mxCell id="jizPv-eEhtP9rnBbFYtr-56" value="&lt;font style=&quot;font-size: 17px;&quot;&gt;Backend : docker build / push&lt;/font&gt;" style="shape=document;whiteSpace=wrap;html=1;boundedLbl=1;rounded=1;container=0;" vertex="1" parent="WIyWlLk6GJQsqaUBKTNV-1">
          <mxGeometry x="1830" y="630" width="120" height="120" as="geometry" />
        </mxCell>
        <mxCell id="jizPv-eEhtP9rnBbFYtr-58" value="Push to private registry" style="text;html=1;strokeColor=none;fillColor=none;align=center;verticalAlign=middle;whiteSpace=wrap;rounded=0;container=0;" vertex="1" parent="WIyWlLk6GJQsqaUBKTNV-1">
          <mxGeometry x="1740" y="590" width="60" height="30" as="geometry" />
        </mxCell>
        <mxCell id="jizPv-eEhtP9rnBbFYtr-70" style="edgeStyle=orthogonalEdgeStyle;rounded=0;orthogonalLoop=1;jettySize=auto;html=1;entryX=1;entryY=0.5;entryDx=0;entryDy=0;" edge="1" parent="WIyWlLk6GJQsqaUBKTNV-1" source="jizPv-eEhtP9rnBbFYtr-59" target="j4ACCZ0t5rgmlNFLIeth-9">
          <mxGeometry relative="1" as="geometry">
            <Array as="points">
              <mxPoint x="1700" y="850" />
              <mxPoint x="1700" y="903" />
            </Array>
          </mxGeometry>
        </mxCell>
        <mxCell id="jizPv-eEhtP9rnBbFYtr-59" value="&lt;font style=&quot;font-size: 19px;&quot;&gt;Backend: &lt;br&gt;docker pull&lt;/font&gt;" style="whiteSpace=wrap;html=1;rounded=1;container=0;" vertex="1" parent="WIyWlLk6GJQsqaUBKTNV-1">
          <mxGeometry x="1830" y="820" width="120" height="60" as="geometry" />
        </mxCell>
        <mxCell id="jizPv-eEhtP9rnBbFYtr-71" style="edgeStyle=orthogonalEdgeStyle;rounded=0;orthogonalLoop=1;jettySize=auto;html=1;entryX=1;entryY=0.5;entryDx=0;entryDy=0;" edge="1" parent="WIyWlLk6GJQsqaUBKTNV-1" source="jizPv-eEhtP9rnBbFYtr-51" target="j4ACCZ0t5rgmlNFLIeth-9">
          <mxGeometry relative="1" as="geometry">
            <Array as="points">
              <mxPoint x="1700" y="903" />
            </Array>
          </mxGeometry>
        </mxCell>
        <mxCell id="jizPv-eEhtP9rnBbFYtr-51" value="&lt;font style=&quot;font-size: 18px;&quot;&gt;FrontEnd: firebase emulator:start&lt;/font&gt;" style="shape=document;whiteSpace=wrap;html=1;boundedLbl=1;rounded=1;container=0;" vertex="1" parent="WIyWlLk6GJQsqaUBKTNV-1">
          <mxGeometry x="1640" y="680" width="120" height="120" as="geometry" />
        </mxCell>
        <mxCell id="jizPv-eEhtP9rnBbFYtr-80" style="edgeStyle=orthogonalEdgeStyle;rounded=0;orthogonalLoop=1;jettySize=auto;html=1;" edge="1" parent="WIyWlLk6GJQsqaUBKTNV-1" source="jizPv-eEhtP9rnBbFYtr-72" target="jizPv-eEhtP9rnBbFYtr-78">
          <mxGeometry relative="1" as="geometry" />
        </mxCell>
        <mxCell id="jizPv-eEhtP9rnBbFYtr-72" value="E2E test" style="rhombus;whiteSpace=wrap;html=1;rounded=1;" vertex="1" parent="WIyWlLk6GJQsqaUBKTNV-1">
          <mxGeometry x="1080" y="809.9991891891892" width="80" height="80" as="geometry" />
        </mxCell>
        <mxCell id="jizPv-eEhtP9rnBbFYtr-79" value="" style="edgeStyle=orthogonalEdgeStyle;rounded=0;orthogonalLoop=1;jettySize=auto;html=1;entryX=1;entryY=0.5;entryDx=0;entryDy=0;" edge="1" parent="WIyWlLk6GJQsqaUBKTNV-1" source="jizPv-eEhtP9rnBbFYtr-75" target="jizPv-eEhtP9rnBbFYtr-78">
          <mxGeometry relative="1" as="geometry">
            <Array as="points">
              <mxPoint x="1040" y="958" />
              <mxPoint x="1040" y="903" />
            </Array>
          </mxGeometry>
        </mxCell>
        <mxCell id="jizPv-eEhtP9rnBbFYtr-75" value="Performance&lt;br&gt;test" style="rhombus;whiteSpace=wrap;html=1;rounded=1;" vertex="1" parent="WIyWlLk6GJQsqaUBKTNV-1">
          <mxGeometry x="1070" y="910" width="100" height="95" as="geometry" />
        </mxCell>
        <mxCell id="jizPv-eEhtP9rnBbFYtr-82" value="" style="edgeStyle=orthogonalEdgeStyle;rounded=0;orthogonalLoop=1;jettySize=auto;html=1;" edge="1" parent="WIyWlLk6GJQsqaUBKTNV-1" source="jizPv-eEhtP9rnBbFYtr-78" target="jizPv-eEhtP9rnBbFYtr-81">
          <mxGeometry relative="1" as="geometry" />
        </mxCell>
        <mxCell id="jizPv-eEhtP9rnBbFYtr-85" value="" style="edgeStyle=orthogonalEdgeStyle;rounded=0;orthogonalLoop=1;jettySize=auto;html=1;" edge="1" parent="WIyWlLk6GJQsqaUBKTNV-1" source="jizPv-eEhtP9rnBbFYtr-78" target="jizPv-eEhtP9rnBbFYtr-84">
          <mxGeometry relative="1" as="geometry" />
        </mxCell>
        <mxCell id="jizPv-eEhtP9rnBbFYtr-78" value="&lt;font style=&quot;font-size: 20px;&quot;&gt;Deploy&lt;/font&gt;" style="whiteSpace=wrap;html=1;rounded=1;" vertex="1" parent="WIyWlLk6GJQsqaUBKTNV-1">
          <mxGeometry x="930" y="873.38" width="80" height="60" as="geometry" />
        </mxCell>
        <mxCell id="jizPv-eEhtP9rnBbFYtr-86" style="edgeStyle=orthogonalEdgeStyle;rounded=0;orthogonalLoop=1;jettySize=auto;html=1;entryX=1;entryY=0.5;entryDx=0;entryDy=0;" edge="1" parent="WIyWlLk6GJQsqaUBKTNV-1" source="jizPv-eEhtP9rnBbFYtr-81" target="jizPv-eEhtP9rnBbFYtr-88">
          <mxGeometry relative="1" as="geometry">
            <Array as="points">
              <mxPoint x="450" y="825" />
              <mxPoint x="450" y="870" />
              <mxPoint x="310" y="870" />
            </Array>
          </mxGeometry>
        </mxCell>
        <mxCell id="jizPv-eEhtP9rnBbFYtr-81" value="&lt;font style=&quot;font-size: 19px;&quot;&gt;Frontend:&amp;nbsp;&lt;br&gt;firebase deploy&lt;/font&gt;" style="rhombus;whiteSpace=wrap;html=1;rounded=1;" vertex="1" parent="WIyWlLk6GJQsqaUBKTNV-1">
          <mxGeometry x="660" y="770" width="220" height="110" as="geometry" />
        </mxCell>
        <mxCell id="jizPv-eEhtP9rnBbFYtr-87" style="edgeStyle=orthogonalEdgeStyle;rounded=0;orthogonalLoop=1;jettySize=auto;html=1;entryX=1;entryY=0.5;entryDx=0;entryDy=0;" edge="1" parent="WIyWlLk6GJQsqaUBKTNV-1" source="jizPv-eEhtP9rnBbFYtr-84" target="jizPv-eEhtP9rnBbFYtr-88">
          <mxGeometry relative="1" as="geometry">
            <Array as="points">
              <mxPoint x="450" y="958" />
              <mxPoint x="450" y="870" />
              <mxPoint x="310" y="870" />
            </Array>
          </mxGeometry>
        </mxCell>
        <mxCell id="jizPv-eEhtP9rnBbFYtr-84" value="&lt;font style=&quot;font-size: 16px;&quot;&gt;Backend:&lt;br&gt;Docker Hub&lt;/font&gt;" style="rhombus;whiteSpace=wrap;html=1;rounded=1;" vertex="1" parent="WIyWlLk6GJQsqaUBKTNV-1">
          <mxGeometry x="670" y="904.19" width="210" height="106.62" as="geometry" />
        </mxCell>
        <mxCell id="jizPv-eEhtP9rnBbFYtr-88" value="&lt;font style=&quot;font-size: 20px;&quot;&gt;Serolog / ElasticSearch / Kibana&lt;/font&gt;" style="rounded=1;whiteSpace=wrap;html=1;" vertex="1" parent="WIyWlLk6GJQsqaUBKTNV-1">
          <mxGeometry x="190" y="835" width="150" height="95" as="geometry" />
        </mxCell>
      </root>
    </mxGraphModel>
  </diagram>
</mxfile>
